<svg xmlns="http://www.w3.org/2000/svg" xmlns:xlink="http://www.w3.org/1999/xlink" viewBox="0 0 1073.57 1073.57" width="50" height="50"><defs><style>.cls-1{isolation:isolate;}.cls-2,.cls-62{fill:#fff;}.cls-2{opacity:0.2;}.cls-3,.cls-37,.cls-53,.cls-63{opacity:0.9;}.cls-3{fill:url(#linear-gradient);}.cls-4{fill:#faf3c5;}.cls-5{fill:#f7eda8;}.cls-6{fill:#f7e672;}.cls-7{fill:#f7de34;}.cls-8{fill:#f2cf33;}.cls-9{fill:#4b7d74;}.cls-10{fill:url(#linear-gradient-2);}.cls-11{fill:url(#linear-gradient-3);}.cls-12{fill:url(#linear-gradient-4);}.cls-13{fill:url(#linear-gradient-5);}.cls-14{fill:#406b64;}.cls-15{fill:url(#linear-gradient-6);}.cls-16{fill:#52877e;}.cls-17{fill:url(#linear-gradient-7);}.cls-18{opacity:0.15;}.cls-18,.cls-20,.cls-60,.cls-61{mix-blend-mode:multiply;}.cls-19{fill:#45736b;}.cls-20{opacity:0.05;}.cls-21{fill:#e8e5d4;}.cls-22{fill:#d6d3c4;}.cls-23{fill:#f0eddb;}.cls-24{fill:none;}.cls-25{fill:#ccc9bb;}.cls-26{fill:#548c83;}.cls-27{fill:#3f6962;}.cls-28{fill:#6c9c94;}.cls-29{fill:#527872;}.cls-30{fill:#78b0a6;}.cls-31{fill:#6ea198;}.cls-32{fill:#a2e8f5;}.cls-33{fill:#8dc2b9;}.cls-34{fill:#89bdb4;}.cls-35{fill:#568f85;}.cls-36{fill:#4e8279;}.cls-37{fill:url(#linear-gradient-8);}.cls-38{fill:#f9f5df;}.cls-39{fill:#f2efda;}.cls-40{fill:url(#linear-gradient-9);}.cls-41{fill:#e3dfcc;}.cls-42{fill:url(#linear-gradient-10);}.cls-43{fill:#528782;}.cls-44{fill:#68b0a6;}.cls-45{fill:#487571;}.cls-46{fill:#509188;}.cls-47{fill:#7aa39f;}.cls-48{fill:#82bdb5;}.cls-49{fill:#47756d;}.cls-50{fill:#436e66;}.cls-51{fill:#51877e;}.cls-52{fill:#416b64;}.cls-53{fill:url(#linear-gradient-11);}.cls-54{fill:#659490;}.cls-55{fill:#74b6ad;}.cls-56{fill:url(#linear-gradient-12);}.cls-57{fill:url(#linear-gradient-13);}.cls-58{fill:url(#linear-gradient-14);}.cls-59{fill:url(#linear-gradient-15);}.cls-60,.cls-61{opacity:0.28;}.cls-60{fill:url(#linear-gradient-16);}.cls-61{fill:url(#linear-gradient-17);}.cls-62{opacity:0.25;}.cls-63{fill:url(#linear-gradient-18);}</style><linearGradient id="linear-gradient" x1="293.31" y1="924.59" x2="680.08" y2="924.59" gradientTransform="matrix(1, 0.07, -0.07, 1, -99.06, -92.9)" gradientUnits="userSpaceOnUse"><stop offset="0" stop-color="#ccf2fc"/><stop offset="1" stop-color="#e5f8ff"/></linearGradient><linearGradient id="linear-gradient-2" x1="273.24" y1="653.12" x2="926.76" y2="653.12" gradientTransform="translate(637.56 -232.97) rotate(45)" gradientUnits="userSpaceOnUse"><stop offset="0" stop-color="#2e4d48"/><stop offset="1" stop-color="#437069"/></linearGradient><linearGradient id="linear-gradient-3" x1="238.1" y1="551.82" x2="751.58" y2="551.82" gradientTransform="matrix(1, 0, 0, 1, 0, 0)" xlink:href="#linear-gradient-2"/><linearGradient id="linear-gradient-4" x1="292.13" y1="551.82" x2="697.55" y2="551.82" gradientUnits="userSpaceOnUse"><stop offset="0" stop-color="#2f4f4a"/><stop offset="1" stop-color="#44726b"/></linearGradient><linearGradient id="linear-gradient-5" x1="384.08" y1="615.03" x2="732.03" y2="615.03" gradientTransform="translate(598.34 -214.47) rotate(45)" gradientUnits="userSpaceOnUse"><stop offset="0" stop-color="#32544f"/><stop offset="1" stop-color="#477770"/></linearGradient><linearGradient id="linear-gradient-6" x1="273.24" y1="814.94" x2="560.16" y2="814.94" xlink:href="#linear-gradient-4"/><linearGradient id="linear-gradient-7" x1="273.24" y1="504.19" x2="649.52" y2="504.19" gradientTransform="matrix(1, 0, 0, 1, 0, 0)" xlink:href="#linear-gradient-2"/><linearGradient id="linear-gradient-8" x1="667.96" y1="440.58" x2="1037.85" y2="440.58" gradientTransform="translate(55.89 22.03) rotate(-1.75)" xlink:href="#linear-gradient"/><linearGradient id="linear-gradient-9" x1="1279.47" y1="201.13" x2="1279.47" y2="148.99" gradientTransform="translate(-506.15 -212.82) rotate(15.76)" gradientUnits="userSpaceOnUse"><stop offset="0" stop-color="#e3dfcc"/><stop offset="0.99" stop-color="#fffbe6"/></linearGradient><linearGradient id="linear-gradient-10" x1="688.06" y1="320.16" x2="688.06" y2="278.03" gradientTransform="translate(-49.41 -12.42) rotate(1.47)" gradientUnits="userSpaceOnUse"><stop offset="0" stop-color="#d6d3c4"/><stop offset="0.99" stop-color="#f7f4e3"/></linearGradient><linearGradient id="linear-gradient-11" x1="127.94" y1="533.84" x2="471.48" y2="533.84" gradientTransform="matrix(1, 0, 0, 1, 0, 0)" xlink:href="#linear-gradient"/><linearGradient id="linear-gradient-12" x1="172.96" y1="747.7" x2="172.96" y2="656.29" gradientUnits="userSpaceOnUse"><stop offset="0" stop-color="#6ed9e0"/><stop offset="0.99" stop-color="#bef7ff"/></linearGradient><linearGradient id="linear-gradient-13" x1="197.44" y1="747.7" x2="197.44" y2="656.29" gradientUnits="userSpaceOnUse"><stop offset="0" stop-color="#4abcc4"/><stop offset="0.99" stop-color="#9cebf6"/></linearGradient><linearGradient id="linear-gradient-14" x1="209.53" y1="685.56" x2="209.53" y2="624.64" xlink:href="#linear-gradient-12"/><linearGradient id="linear-gradient-15" x1="225.85" y1="685.56" x2="225.85" y2="624.64" xlink:href="#linear-gradient-13"/><linearGradient id="linear-gradient-16" x1="186.24" y1="747.7" x2="186.24" y2="656.29" xlink:href="#linear-gradient-13"/><linearGradient id="linear-gradient-17" x1="218.26" y1="685.56" x2="218.26" y2="624.64" xlink:href="#linear-gradient-13"/><linearGradient id="linear-gradient-18" x1="694.28" y1="936.88" x2="1029.61" y2="936.88" gradientTransform="matrix(1, 0, 0, 1, 0, 0)" xlink:href="#linear-gradient"/></defs><title>76253 [Convertido]</title><g class="cls-1"><g id="Design"><circle class="cls-2" cx="600" cy="600" r="536.79" transform="translate(-311.74 536.79) rotate(-45)"/><circle class="cls-2" cx="600" cy="600" r="484.7" transform="translate(-311.74 536.79) rotate(-45)"/><circle class="cls-2" cx="600" cy="600" r="420.57" transform="translate(-311.74 536.79) rotate(-45)"/><circle class="cls-2" cx="600" cy="600" r="361.47" transform="translate(-311.74 536.79) rotate(-45)"/><path class="cls-3" d="M247.62,801.8c-8.38.33-17.07.74-24.55,4.54s-13.44,12-11.87,20.23c2.37,12.43,18.09,16.16,30.7,17.24l57.49,5c6.24.53,12.66,1.12,18.2,4s10,8.75,9.39,15-6.16,10.94-12.11,12.72-12.31,1.17-18.49.61a954.75,954.75,0,0,0-139.15-2.35c-7.67.43-15.6,1-22.35,4.69s-12,11.22-10.52,18.75c2.27,11.49,16.78,14.94,28.45,15.93,106.08,9,212.91,13.16,319,3.94,8-.69,16.19-1.54,23.11-5.52s12.2-12,10.46-19.79c-1.68-7.55-9.11-12.42-16.45-14.86s-15.26-3.31-22.09-6.95-12.46-11.37-10.26-18.79c2.32-7.85,11.93-11.07,20.11-10.62s16.23,3.3,24.38,2.47,16.76-7.56,15.28-15.61c-1.41-7.73-10.47-11-18.12-12.78-43.32-9.89-86.55-11.54-130.21-17.79C328.27,796.14,287.91,800.21,247.62,801.8Z" transform="translate(-63.21 -63.21)"/><circle class="cls-4" cx="895.61" cy="459.96" r="84.37"/><circle class="cls-5" cx="958.82" cy="523.17" r="67.11" transform="translate(-152.32 768.01) rotate(-45)"/><circle class="cls-6" cx="958.82" cy="523.17" r="58.33" transform="translate(-152.32 768.01) rotate(-45)"/><circle class="cls-7" cx="958.82" cy="523.17" r="47.98" transform="translate(-152.32 768.01) rotate(-45)"/><path class="cls-8" d="M986.51,484a48,48,0,0,1-66.86,66.86A48,48,0,1,0,986.51,484Z" transform="translate(-63.21 -63.21)"/><circle class="cls-9" cx="494.84" cy="551.82" r="219"/><circle class="cls-10" cx="600" cy="653.12" r="326.76" transform="translate(-349.31 552.35) rotate(-45)"/><circle class="cls-11" cx="494.84" cy="551.82" r="256.74"/><circle class="cls-12" cx="494.84" cy="551.82" r="202.71"/><circle class="cls-13" cx="558.05" cy="615.03" r="173.97" transform="translate(-334.66 511.53) rotate(-45)"/><path class="cls-14" d="M848.78,712.13c-15.95-1.57-32.38-2.47-47.68,2.28-8.37,2.6-17.36,8.68-17.12,17.44.13,5.1,3.48,9.65,3.8,14.74.48,7.5-5.91,14-13,16.43s-14.85,1.77-22.36,1.49a212.22,212.22,0,0,0-75.66,11c-10.22,3.46-21.88,10.09-21.85,20.88,0,6.05,4.1,11.55,9.28,14.7s11.3,4.3,17.32,5c6.19.67,12.55.91,18.31,3.26S710.72,826.75,711,833c.42,8.66-8.54,15-17.09,16.45s-17.36-.36-25.93.93-17.64,7.38-17.57,16c.09,9.87,11.58,15.59,21.44,16.14,14.26.8,28.19-4.17,42.41-5.58S745,879,752,891.49c3.13,5.58,4.62,13,10.54,15.48,6.88,2.82,13.77-3.36,20.37-6.81,10.3-5.37,22.2-4.11,34-2.69A326.24,326.24,0,0,0,922.81,704.06a64.94,64.94,0,0,1-26.13,9.5C880.83,715.88,864.72,713.69,848.78,712.13Z" transform="translate(-63.21 -63.21)"/><path class="cls-15" d="M558.49,957.12c-6-10.61-24.87-9.33-28.78-20.89-2.92-8.63,5.19-16.83,12.77-21.91s16.53-11.39,16.11-20.5c-.44-9.7-11.53-15.3-21.22-16.05-11.69-.91-23.27,2.13-34.72,4.65s-23.45,4.51-34.8,1.57S446,871.92,445,860.24c-.72-8.35,3.39-16.48,3.19-24.85-.33-13.52-12-24.55-24.87-28.81s-26.71-3.33-40.23-3-27.68,0-39.53-6.57-20.35-21-15.83-33.75c2.47-6.94,8.19-12.13,12.49-18.13s7.15-14.31,3.27-20.58c-5.67-9.16-22.06-8.31-25.38-18.56-1.67-5.16,1.16-10.8,5-14.59,7.06-6.91,17.79-10.64,19.33-21.61.95-6.78-1.61-11.11-7.88-13.38-6.82-2.46-15.07-1.56-22.18-2.54-1.67-.23-3.33-.5-5-.79H273.24c0,165.1,122.44,301.59,281.47,323.65C559.44,970.74,562.09,963.47,558.49,957.12Z" transform="translate(-63.21 -63.21)"/><path class="cls-14" d="M649.84,500.13c-6.08,3.85-11.9,8.39-15.87,14.38s-5.9,13.66-3.78,20.54c2.71,8.81,11.7,16.47,9.24,25.35-1.78,6.44-8.78,9.68-15,12.11l-40,15.57c-6.22,2.42-12.56,4.91-17.72,9.14s-9,10.58-8.63,17.24c.65,10.33,11.25,17.51,21.5,18.95s20.59-1.16,30.93-1.71c6.17-.33,12.63.15,18,3.21s9.31,9.29,8.12,15.35c-1.16,5.89-6.44,9.87-10.69,14.1s-7.9,10.72-5,16c3.24,5.87,11.73,5.46,18.24,3.83,18-4.53,37-12.26,54.3-5.75,13,4.87,21.93,16.75,33.95,23.59,14.07,8,31.46,8.47,47.19,4.67s30.22-11.52,44.44-19.26c11.06-6,22.46-12.42,29.87-22.61s9.64-25.28,1.74-35.09c-6.75-8.37-18.33-10.52-28.33-14.45S802,602.38,804.27,591.88c1.88-8.61,11.07-13.06,18.63-17.58,6.15-3.69,12-8.36,15.4-14.66s4-14.52,0-20.48c-5.13-7.68-15.55-9.34-24.77-10s-19.5-1.48-25.62-8.39c-4.4-5-6-11.67-10.76-16.44C772.71,499.92,766.43,497,761,494a83.16,83.16,0,0,0-26.23-8.89C705.45,479.91,675.25,484.05,649.84,500.13Z" transform="translate(-63.21 -63.21)"/><path class="cls-16" d="M776,767.13c.45.56-.17-.24-.29-.36a3.73,3.73,0,0,0-1.93-1.06h-.17a1.58,1.58,0,0,0-.7-.51,9.7,9.7,0,0,1-1.51-.9,11.09,11.09,0,0,1-1.31-.74,2.51,2.51,0,0,0-3.88.5c-1.24,2.18-.3,4.64,1.55,6.12a10.74,10.74,0,0,0,2.7,1.43,3.3,3.3,0,0,1,1.48.93c1.28,1.52,3.58.83,4.55-.59a3.9,3.9,0,0,0,.09-4A5.61,5.61,0,0,0,776,767.13Z" transform="translate(-63.21 -63.21)"/><path class="cls-16" d="M791.24,775.15a2.64,2.64,0,0,0-4.06-1.13,2.57,2.57,0,0,0-.41.15,2.9,2.9,0,0,0-.61,4.5,4.31,4.31,0,0,0,1,1.62,4.7,4.7,0,0,0,5.92.4,3.13,3.13,0,0,0,1.48-2.59,3.1,3.1,0,0,0-.88-2.13A2.81,2.81,0,0,0,791.24,775.15Z" transform="translate(-63.21 -63.21)"/><path class="cls-16" d="M802.61,791.84a3.51,3.51,0,0,1-.89-1.75,1.65,1.65,0,0,0-1.83-1.2,1.69,1.69,0,0,0-1.45,1.64,10.43,10.43,0,0,0,.11,2.09,6.51,6.51,0,0,0,.17.9c0,.15.18,1,.19.42a2.44,2.44,0,1,0,3.7-2.1Z" transform="translate(-63.21 -63.21)"/><path class="cls-16" d="M746.5,756.14a1.64,1.64,0,0,0-1.2,1.21,1.85,1.85,0,0,0,1.27,2.24,2.18,2.18,0,0,0,2.31-.71,1.93,1.93,0,0,0,0-2.43A1.74,1.74,0,0,0,746.5,756.14Z" transform="translate(-63.21 -63.21)"/><path class="cls-16" d="M686.41,506a36.37,36.37,0,0,1,5.44,1.32l1.82,1a5.53,5.53,0,0,1,2.07,4c.34,2.91-.26,5.36,2.37,7.39,3.44,2.65,11.22,2.26,12.07-2.87a7,7,0,0,0-1-4.8,1.6,1.6,0,0,0,.15-.92c-.79-6.88-8.21-7.16-12.61-11-1.83-1.62-2.24-3-3.07-5.18-.46-1.21-.6-2.3-1.59-3.33-1.94-2-5.38-2.8-8.06-2.88-4.5-.14-12.26,2.35-12.82,7.72C670.55,502.69,681.94,505.07,686.41,506Z" transform="translate(-63.21 -63.21)"/><path class="cls-16" d="M661.11,487.9a3.51,3.51,0,0,0,2.09-.82,3.07,3.07,0,0,0,1.35.1,2.94,2.94,0,0,0,2.21-1.44,3.15,3.15,0,0,0,0-3.05,4.94,4.94,0,0,0-4.38-2.75,4.23,4.23,0,0,0-4.07,3.22,4.38,4.38,0,0,0,.09,2.46C658.77,486.71,659.84,488,661.11,487.9Z" transform="translate(-63.21 -63.21)"/><path class="cls-16" d="M664.39,469.43a2.22,2.22,0,0,0,.81-.18,2.09,2.09,0,0,0,.35,0,2.5,2.5,0,0,0,2.37-3.11,3.49,3.49,0,0,0-3.43-2.66c-1,.06-2.3,1-2.15,2.16a17.15,17.15,0,0,1,.07,1.76A2,2,0,0,0,664.39,469.43Z" transform="translate(-63.21 -63.21)"/><path class="cls-16" d="M671.35,521.75a3.85,3.85,0,0,0,1.38-1.28,2.11,2.11,0,0,0-.55-2.73,2.14,2.14,0,0,0-2.77.16,3,3,0,0,0-.78,1.13,2.07,2.07,0,0,0,.31,2.41A2,2,0,0,0,671.35,521.75Z" transform="translate(-63.21 -63.21)"/><path class="cls-16" d="M686.57,527.78c3,0,3-4.61,0-4.61S683.6,527.78,686.57,527.78Z" transform="translate(-63.21 -63.21)"/><path class="cls-16" d="M669.82,640.79c-3.3,0-3.3,5.11,0,5.11S673.12,640.79,669.82,640.79Z" transform="translate(-63.21 -63.21)"/><path class="cls-16" d="M666.6,656.28a2.22,2.22,0,0,0-2.16-3.71l-.57.1a2.12,2.12,0,0,0-1.55,2,2.14,2.14,0,0,0,1.55,2l.57.1A2.26,2.26,0,0,0,666.6,656.28Z" transform="translate(-63.21 -63.21)"/><path class="cls-16" d="M666.23,665.54a1.74,1.74,0,0,0,0,3.47A1.74,1.74,0,0,0,666.23,665.54Z" transform="translate(-63.21 -63.21)"/><path class="cls-16" d="M925.56,625A325.12,325.12,0,0,0,855.24,449.1l-17-5.49c-3.86-1.25-7.92-2.51-11.91-2.23a52.44,52.44,0,0,0-17.43-7.88c-6.49-1.62-12.16-1.61-17.33-6.38-4.39-4.07-8.32-7.74-14-10.06a61.1,61.1,0,0,0-16-3.75c-5.64-.68-12.11-2-17.54.28-2.49,1-4.42,2.74-6.63,4.21-2.51,1.66-4.94,1.86-7.73,2.67a14.73,14.73,0,0,0-9.23,8.13c-1.69,3.48-2.53,7.27-4,10.85-2.46,6.06-6.82,7.84-13,9-10.74,1.95-20.32,6.36-25.6,16.52-1.71,3.28-4.61,9.3-1.55,12.6,1.47,1.58,3.46,1.64,5.44,1.48,3.84-.32,7.57-1.05,11.46-1.08,1.64,0,3.29,0,4.93.15,3,.21,2.55,1.13,3.62,3.45a8.93,8.93,0,0,0,3.91,4.08c3.54,1.95,10.09,1.23,12.12,5.12,1.27,2.44,1,4.95,3.07,7.11a13.28,13.28,0,0,0,6.55,3.46c3,.71,6,.47,9.09.51a17.47,17.47,0,0,1,5.44.56c2.53.87,6,4.12,3.78,7.18a14.26,14.26,0,0,0-3.17,2.14l-.22.23c-5,1.61-9.47,4.78-13.8,7.64A138.17,138.17,0,0,0,715,529.42c-4.84,4.1-8.66,9.11-13.22,13.49a24.11,24.11,0,0,1-16.11,6.92c-5.73.37-11.47-.15-17.16.79-8.88,1.46-17.42,7-17.19,16.94a12.67,12.67,0,0,0,3.8,9.05,11.47,11.47,0,0,0,4.84,2.45c.68.19,2.75.26,3.24.78,1.44,1.54-.66,5.41-1.16,7l-3.21,10.09c-1,3.27-2.73,6.83-3.08,10.25-.39,3.88,2.33,5.91,5.81,6.69,2.88.65,5.21.14,6.39,3.36.78,2.13.81,3.85,2.57,5.49,2.39,2.23,5.7,2.59,8.9,2.31-1,3.51-1,7.26,1.27,9.75a12.88,12.88,0,0,0,1.09,4.86c1.78,4.27,6.3,8.39,4.34,12.58-1.14,2.45-4,3.43-6.44,4.66s-4.87,3.71-4,6.27c1.24,3.57,6.94,2.65,9.57,5.36S686,676,683.48,679s-5.63,6.4-4.7,10.18c.8,3.28,4.46,5.09,7.83,5.29s6.71-.76,10.08-.88c11.38-.41,21.89,10.29,21.26,21.66-.2,3.65-1.05,8.11,1.88,10.3,2.13,1.6,5.22.94,7.54-.38s4.33-3.22,6.84-4.12a9.59,9.59,0,0,1,11,14.66l2.47,1.78a4.93,4.93,0,0,0,1.13,4.9c1.28,1.5,3.22,1.89,4.83,2.88,2.55,1.59,3.05,3.74,4.05,6.37,1.62,4.24,4.16,6.14,8.23,8,5.27,2.44,10.52,5,15.9,7.25,3.93,1.62,7.79,2.48,11.79,1.39L807.28,774c3.1,1.31,7.52,2.21,9.13-.75l1.84,4,21,.45c5.82.13,12,.15,16.94-2.93s7.57-10.52,3.7-14.86c-1.39-1.55-3.42-2.55-4.37-4.4-1.55-3,.51-6.57,2.49-9.34l1-1.36a11.5,11.5,0,0,0,8.11-2,1.53,1.53,0,0,0,2.16,1,5.17,5.17,0,0,0,2.66-3.33,8.08,8.08,0,0,0,7-2,7.26,7.26,0,0,0,2.28-6c-.23-2.8-1.81-3.82.56-5.89a9,9,0,0,0,3.17-4.57c.27-1.13,0-2.34.48-3.43a8.29,8.29,0,0,1,1.79-2.23c2.58-2.06,5.24-3.57,6.93-6.66a3.29,3.29,0,0,0-.33-3.67c1.16-1.44,1.72-3.1.43-5.07-1.74-2.63-5-2.33-7.42-.86a3.53,3.53,0,0,0-1.13,1.11c-3.61-.49-6.87-1.83-8.55-4.94-3.23-6,2.16-12.79,6.77-17.79,3.13-3.4,6.18-7.15,7.26-11.65a12,12,0,0,0-1.91-10c3.86-3.36,6.46-7.85,6.25-13.36a12.81,12.81,0,0,0-.74-3.63c-.37-1.08-1.81-2.84-1.76-3.93a5.54,5.54,0,0,1,1.15-2.72l15.34.14c2.88,0,5.88,0,8.46-1.26s4.56-4.25,3.72-7A10.64,10.64,0,0,0,925.56,625Z" transform="translate(-63.21 -63.21)"/><path class="cls-17" d="M299.83,671.09c9-9,17.05-20.92,29.63-23,6.87-1.14,13.91,1,20.85.41s14.62-5.87,13.52-12.75c-.77-4.77-5.32-7.85-8-11.89-5.88-8.93-1.32-21.68,7.05-28.34s19.36-8.76,29.89-10.65l74.4-13.4c9.37-1.69,19-3.5,26.92-8.82s13.54-15.2,11-24.37c-2.5-9-11.77-14.61-15-23.35-3.71-10,1.65-21.45,9.91-28.11s18.84-9.59,29.09-12.35l85.44-23c8.76-2.36,17.79-4.85,24.94-10.45s12-15.17,9.31-23.84c-3.5-11.35-16.9-15.6-28.17-19.36s-24.1-11.8-22.83-23.61c1.13-10.51,13.21-16.94,15.31-27.31,1.62-8-3.13-15.21-9.73-20.53l-3.36,0c-180.46,0-326.76,146.29-326.76,326.75q0,14.52,1.25,28.73C283,683.06,293.23,677.74,299.83,671.09Z" transform="translate(-63.21 -63.21)"/><path class="cls-16" d="M654.58,772.51c-2.81-.89-6.12-3-5.36-5.9-2.74,2-6.67.18-9.07-2.22s-4.4-5.49-7.61-6.57c-3-1-4.52.16-7,2.12-1.7,1-4-.57-4.39-2.49s.53-3.87,1.67-5.47a25.84,25.84,0,0,0,3.31-4.85c2.19-5.2-2.41-11.52-8-12.26-.13-1.16-.27-2.31-.4-3.46a11.7,11.7,0,0,1-11-1.75A46.11,46.11,0,0,1,603,726a44.15,44.15,0,0,0-7.82-5.66l-7.34-4.54c-6.39-3.94-12.83-7.92-19.89-10.46,1,1.76-1.42,3.78-3.45,3.51s-3.71-1.7-5.69-2.24c-3.07-.84-6.22.57-9.07,2.07a5.07,5.07,0,0,0-1.51-1.82c-2-1.53-5-1.36-7.21-.19-4.71,2.43-5.78,6.41-4.87,9.62-2.37,1.52-5.15,3.15-6.69,2.82s-3.51-3.86-5.48-4.6a9.42,9.42,0,0,0-7.69.38L499.14,712c-2.17-2.85-1.26-6.93.13-10.23s3.22-6.73,2.56-10.25-3.77-6.2-6.66-8.46l-8.55.86c0-1.35-.07-2.7-.1-4-1.11.84-2.84.07-3.49-1.17a7.38,7.38,0,0,1-.39-4.1q.53-5.32,1-10.65a9.73,9.73,0,0,0-.44-5.2c-.78-1.58-2.84-2.68-4.36-1.78l-.21-3c-2.23-1.45-5.34-.7-7.37,1s-3.22,4.2-4.36,6.6l-3.79,8-8.27-.27a4.71,4.71,0,0,0-4.4-6.18c-4.48-3.82-5.26-7.14-9.09-11.62-1.83-2.14-3.64-4.49-4-7.27-.53-3.73,1.57-7.27,3.59-10.44s4.22-6.49,7.69-7.85c3.92-1.55,8.29-.16,12.49.09s9.4-1.62,9.8-5.81c.52,3.09,5.06,3.43,7.77,1.86s5-4.23,8.07-4.66c2.71-.38,5.37,1.1,7.31,3s3.39,4.29,5.21,6.34a22.11,22.11,0,0,0,2.13,2.09,1.41,1.41,0,0,0,.24.75c1.64,2.48.77,5.55,1.55,8.3a6.67,6.67,0,0,0,4.77,4.89,5.28,5.28,0,0,0,5.67-2.18,10.09,10.09,0,0,0,.76-3.65,32.6,32.6,0,0,0,3.51-3.34l8.56-3.73c2.42-5.15,6.53-8.41,8.95-13.56q1.11-2.39,2.23-4.75c.61-1.31,1.22-2.62,1.84-3.92q1.9-4.08,3.83-8.16c2.28-4.87,4.57-9.75,6.43-14.79a20.57,20.57,0,0,0,7.68-12.23c1-5.08-.61-10.21.16-15.28.81-5.41,4.23-9.91,4-15.58-.2-5.25-3.16-9.54-4.12-14.57-1-5.36,1.13-10.78-.52-16.14a11.71,11.71,0,0,0-10-8.55c-2.8-.41-4.06-.29-5.13-2.92a53.71,53.71,0,0,1-1.55-5.76c-1-3.7-2.64-7.43-6.08-9.5a15,15,0,0,0-8.14-1.66c-2,.05-6.71,1-7.25-1.81-.63-3.33-5.81-3.95-7.31-1-4,8-13.54,5.44-19.11.73-2.77-2.34-6.4-.68-6.78,2.81s-.76,8.22-3.77,10.71-5.66.26-7.32-2.44c-3.23-5.27-4-11.74-6.44-17.35s-7.22-7.59-13.18-8c-7.64-.5-14.11-2.24-20.4-6.78-1.72-1.24-4.57,0-5,2,.26-1.21-2.09-3.89-2.92-4.86a9.17,9.17,0,0,0-4.31-3c-4-1.14-8.15,1.06-10.74,4-3,3.39-3.56,8.52-7,11.53-3.24,2.85-8.25,3-12.31,3.52-3.86.47-7.73,1-11.31,2.61-4.14,1.91-7.38,5.14-10.75,8.12-3.69,3.28-7.18,4.65-11.74,6.24-3.87,1.34-6.69,3.6-7.8,7.66-1.21,4.4.72,9.33-2.38,13.14-3.82,4.7-8.77,8.72-13,13-4,4-8.34,7.86-12.07,12.12-2.33,2.68-3.74,5.93-2.37,9.41,1,2.44,3,4.06,5.14,5.52,2.47,1.73,6.84,3.18,5.42,6.74-1.34,3.36-4.16,5.62-3.47,9.6.66,3.81,4,5.88,7.57,6.4,2.3.34,4.52-.44,6.78-.24,3.24.29,4,2.45,6.12,4.46a10.06,10.06,0,0,0,5.6,2.66c2.85.45,5.1-.09,6.58,2.91,2,4,2,8.33,4.78,12,.25.32.5.62.77.91-.22,7.11-.19,14.47,3,20.79a12.79,12.79,0,0,0,5,5.66,7,7,0,0,0,7.28-.15c-1.93,2.16-1.16,5.74.77,7.9s4.71,3.33,7.24,4.74A38.14,38.14,0,0,1,408,660.6c.64,3.24.87,6.66,2.48,9.54s5.18,5.07,8.22,3.76l1,1.94c1.91,3.58,4.61,6.94,8.27,8.7s7.74,2.36,11.76,2.94l16,2.32a48.21,48.21,0,0,1,11.49,2.64c4.41,1.82,8.17,4.9,11.85,7.94,2.28,1.88,4.66,3.89,5.76,6.64,1,2.46.86,5.36,2.41,7.5s4,2.85,6.47,3.46a98.2,98.2,0,0,0,26.72,2.91l3.33,7.37c4,8.8-2.46,18.75-9.86,25-2.57,2.15-5.61,3.93-7.28,6.84s-1.69,6.14-1.59,9.34.35,6.49-.71,9.52-3.8,5.73-7,5.57L499.89,795c-1.38,1.53.59,4.31,2.2,5.58s3.7,2,5,3.61c1.83,2.34,1.37,5.64,1.23,8.61s.56,6.56,3.35,7.59,6.68-1.16,8.76,1c1.1,1.16,1,3,1.86,4.38a3.81,3.81,0,0,0,7.09-1.87,10.43,10.43,0,0,0,8.2,2.37c1.57-.22,2.39.52,3.2,1.88a11.18,11.18,0,0,1,1.14,4.58c.33,3.15.65,6.3,1,9.45a8.07,8.07,0,0,1-.43,4.63c-2.08,3.91-9.41,3-10.51,7.28-.83,3.21,2.88,5.7,4,8.84,1.5,4.43-2.42,8.7-6,11.69s-7.63,7-6.4,11.56c.61,2.24,2.76,3.57,5,4s4.61-.31,6.82-1l14.76-4.6c3.55-1.11,7.7-2.88,8.27-6.56,3,0,5.27-2.77,6.58-5.48s2.26-5.8,4.61-7.68c5-4,12.76-.19,18.86-2.32,4.27-1.49,7-5.59,10.18-8.75s8.53-5.46,12.12-2.71l7.15-6.47c-2.08-2.94,1.54-7.36,4.2-9.78s6.05-4.26,7.63-7.49c1.24-2.53,1.14-5.5,1.91-8.21,1.25-4.35,4.65-7.69,7.91-10.83l18.63-17.86c-1.77.55-3.36-1.72-3-3.54s1.92-3.14,3.27-4.41,2.72-2.88,2.61-4.74C660.86,774.76,657.39,773.41,654.58,772.51Z" transform="translate(-63.21 -63.21)"/><path class="cls-16" d="M532.54,670.47c2.05-.25,4-2,3.94-4-.06-2.77-3.26-4.32-6-4.66s-5.84-.27-7.85-2.18c-.56-1.88-2.45-3-4.18-3.89-4.53-2.39-12.65-9-18-8.78-2.53.09-6.09,2.6-5.84,5.47.22,2.56,4,4.64,5.61,1.89l-1.05,7.43a21.52,21.52,0,0,1,23,2.71c1.57,1.34,2.95,2.9,4.6,4.13A8.17,8.17,0,0,0,532.54,670.47Z" transform="translate(-63.21 -63.21)"/><path class="cls-16" d="M540,674.05c2.58,2.26,6.49,2.45,9.79,2.66l12.1.78c1.49.09,3.45-.16,3.73-1.62.2-1-.63-1.93-1.45-2.57C558.53,668.9,544.18,666.1,540,674.05Z" transform="translate(-63.21 -63.21)"/><path class="cls-16" d="M546.37,657h0Z" transform="translate(-63.21 -63.21)"/><path class="cls-16" d="M548.51,658.19a12.74,12.74,0,0,0-2.1-1.17l2.08,1.16a3.92,3.92,0,0,1-2.11-1.17,4.61,4.61,0,0,0-1.64-.37c-1.41,0-3,1-2.9,2.4,0,1.71,2.09,2.5,3.76,2.87l5.17,1.16c1.17.26,2.61.44,3.38-.48s.23-2.52-.81-3.22a8.1,8.1,0,0,0-3.59-1A10.75,10.75,0,0,1,548.51,658.19Z" transform="translate(-63.21 -63.21)"/><path class="cls-16" d="M520.94,674.18a3,3,0,0,0-2.1,3.24,10.58,10.58,0,0,0,3.77,3.28c1.55.65,3.64.35,4.48-1.11a3.49,3.49,0,0,0-1-4.21,8.21,8.21,0,0,0-4.37-1.57l.42.31A3,3,0,0,0,520.94,674.18Z" transform="translate(-63.21 -63.21)"/><path class="cls-16" d="M481.13,760.69a9.3,9.3,0,0,0-4.42-1.23l1.11-.13a3.79,3.79,0,1,0-2.87,7,7.54,7.54,0,0,0,3.89.06c1.34-.21,2.85-.53,3.54-1.69C483.17,763.38,482.4,761.57,481.13,760.69Z" transform="translate(-63.21 -63.21)"/><path class="cls-16" d="M462.2,759.55a2.13,2.13,0,0,0-2.27.57,2.48,2.48,0,0,0,.62,3.47,3.05,3.05,0,0,0,3.66-.38,4.07,4.07,0,0,0,1.15-3.63Z" transform="translate(-63.21 -63.21)"/><path class="cls-16" d="M468.56,750.94c-1.64-.5-3.93-.63-4.57,1-.57,1.41.91,2.94,2.42,3a7.28,7.28,0,0,0,4.18-1.56l-1.24,1.31a1.29,1.29,0,0,0,2.09-.33,2.06,2.06,0,0,0-.61-2.31A5.67,5.67,0,0,0,468.56,750.94Z" transform="translate(-63.21 -63.21)"/><path class="cls-16" d="M591.75,709.13a5.48,5.48,0,0,0-.81,0l.41.15a1.38,1.38,0,0,0-.58.49,2.58,2.58,0,0,0,.77,3.17,8.26,8.26,0,0,0,3.25,1.41,6.3,6.3,0,0,1,3.12,1.62,6.92,6.92,0,0,0-4.79-6.55A1.71,1.71,0,0,0,591.75,709.13Z" transform="translate(-63.21 -63.21)"/><path class="cls-16" d="M588.15,701.41l-.12.08,4.85-1.26c-.77-1.68-2.25-3.25-4.1-3.31s-3.59,2.16-2.56,3.7A2,2,0,0,0,588.15,701.41Z" transform="translate(-63.21 -63.21)"/><path class="cls-16" d="M532.06,645.76a1.67,1.67,0,1,0-1.67-1.67A1.69,1.69,0,0,0,532.06,645.76Z" transform="translate(-63.21 -63.21)"/><path class="cls-16" d="M536.78,652.45a2.34,2.34,0,0,0-2.19-1.68,2.14,2.14,0,0,0-2,1.55,2.07,2.07,0,0,0,0,1,1.79,1.79,0,0,0,.26.72s0,.05.07.12a.25.25,0,0,1,0,.07l.15.14a2.24,2.24,0,0,0,2.25.72A2.16,2.16,0,0,0,536.78,652.45Z" transform="translate(-63.21 -63.21)"/><path class="cls-16" d="M525.83,653.51a1.74,1.74,0,0,0,1.07-1,1.92,1.92,0,0,0,.11-2.77,1.89,1.89,0,0,0-3,.38,2.6,2.6,0,0,0-.11,2.6A1.66,1.66,0,0,0,525.83,653.51Z" transform="translate(-63.21 -63.21)"/><path class="cls-16" d="M577.39,679.81l.46-.22a1.44,1.44,0,1,0-2-2c-.07.16-.14.31-.22.47A1.27,1.27,0,0,0,577.39,679.81Z" transform="translate(-63.21 -63.21)"/><path class="cls-16" d="M573,687.32a1.15,1.15,0,0,0,0-2.29A1.15,1.15,0,0,0,573,687.32Z" transform="translate(-63.21 -63.21)"/><path class="cls-16" d="M564.09,683.85a1,1,0,0,0,0-2.06A1,1,0,0,0,564.09,683.85Z" transform="translate(-63.21 -63.21)"/><path class="cls-16" d="M582,684.78a1.59,1.59,0,0,0,0-3.18A1.59,1.59,0,0,0,582,684.78Z" transform="translate(-63.21 -63.21)"/><path class="cls-16" d="M591.28,685.31a1.75,1.75,0,0,0,0-3.49A1.75,1.75,0,0,0,591.28,685.31Z" transform="translate(-63.21 -63.21)"/><g class="cls-18"><path class="cls-19" d="M809,402a325.41,325.41,0,0,1,75.59,209c0,180.46-146.29,326.76-326.75,326.76a325.4,325.4,0,0,1-209-75.6A326,326,0,0,0,600,979.88c180.46,0,326.76-146.29,326.76-326.76A326.09,326.09,0,0,0,809,402Z" transform="translate(-63.21 -63.21)"/></g><g class="cls-20"><path class="cls-19" d="M616.1,342.47A325.61,325.61,0,0,1,839,430.26,325.86,325.86,0,0,0,600,326.37c-180.46,0-326.76,146.29-326.76,326.75a325.87,325.87,0,0,0,103.9,239,325.61,325.61,0,0,1-87.8-222.86C289.34,488.76,435.64,342.47,616.1,342.47Z" transform="translate(-63.21 -63.21)"/></g><polygon class="cls-21" points="865.5 203.4 862.2 201.35 760.3 359.83 768.1 364.69 865.5 203.4"/><path class="cls-22" d="M933.35,250.13l-9.5,4.82a3.24,3.24,0,0,0-.25,5.65l9.37,5.84a3.25,3.25,0,0,0,5-2.71l.13-10.66A3.25,3.25,0,0,0,933.35,250.13Z" transform="translate(-63.21 -63.21)"/><path class="cls-23" d="M899.22,254.65l21.68,2.88-55.54,3a.7.7,0,0,1-.13-1.39Z" transform="translate(-63.21 -63.21)"/><path class="cls-21" d="M899.65,262.7l21.25-5.17-55.54,3a.7.7,0,0,0,0,1.4Z" transform="translate(-63.21 -63.21)"/><path class="cls-21" d="M949.07,285.7l-12.15-18.19,21.83,51.16a.7.7,0,0,0,1.31-.5Z" transform="translate(-63.21 -63.21)"/><path class="cls-23" d="M941.65,288.87l-4.73-21.36,21.83,51.16a.7.7,0,0,1-1.26.59Z" transform="translate(-63.21 -63.21)"/><path class="cls-23" d="M952.26,232.67l-14.79,16.11,29.41-47.21a.7.7,0,0,1,1.21.7Z" transform="translate(-63.21 -63.21)"/><path class="cls-21" d="M945.42,228.4l-7.95,20.38,29.41-47.21a.7.7,0,0,0-1.16-.78Z" transform="translate(-63.21 -63.21)"/><path class="cls-24" d="M927.75,257.27a10.17,10.17,0,0,0,6.6.3A7.9,7.9,0,0,0,938,255.1l0-2a3.25,3.25,0,0,0-4.72-2.94l-9.46,4.79A12.24,12.24,0,0,0,927.75,257.27Z" transform="translate(-63.21 -63.21)"/><path class="cls-25" d="M927.75,257.27a12.24,12.24,0,0,1-3.86-2.35l0,0a3.24,3.24,0,0,0-.25,5.65l9.37,5.84a3.25,3.25,0,0,0,5-2.71l.1-8.63a7.9,7.9,0,0,1-3.69,2.47A10.17,10.17,0,0,1,927.75,257.27Z" transform="translate(-63.21 -63.21)"/><polygon class="cls-21" points="834.71 147.08 830.77 144.62 708.88 334.19 718.21 340 834.71 147.08"/><path class="cls-22" d="M903.48,190.58l-11.37,5.76a3.88,3.88,0,0,0-.3,6.76l11.21,7a3.89,3.89,0,0,0,5.94-3.25l.16-12.75A3.88,3.88,0,0,0,903.48,190.58Z" transform="translate(-63.21 -63.21)"/><path class="cls-23" d="M862.64,196l25.94,3.45-70,3.73a.7.7,0,0,1-.13-1.4Z" transform="translate(-63.21 -63.21)"/><path class="cls-21" d="M863.16,205.61l25.42-6.18-70,3.73a.7.7,0,0,0,0,1.4Z" transform="translate(-63.21 -63.21)"/><path class="cls-21" d="M922.27,233.12l-14.53-21.76,27.52,64.48a.7.7,0,0,0,1.31-.5Z" transform="translate(-63.21 -63.21)"/><path class="cls-23" d="M913.4,236.91l-5.66-25.55,27.52,64.48a.7.7,0,0,1-1.26.6Z" transform="translate(-63.21 -63.21)"/><path class="cls-23" d="M926.09,169.69,908.4,189l37.06-59.5a.7.7,0,0,1,1.22.7Z" transform="translate(-63.21 -63.21)"/><path class="cls-21" d="M917.9,164.59,908.4,189l37.06-59.5a.7.7,0,0,0-1.16-.78Z" transform="translate(-63.21 -63.21)"/><path class="cls-24" d="M896.78,199.11a12.14,12.14,0,0,0,7.89.36,9.59,9.59,0,0,0,4.42-2.95l0-2.43a3.89,3.89,0,0,0-5.65-3.51l-11.31,5.73A14.49,14.49,0,0,0,896.78,199.11Z" transform="translate(-63.21 -63.21)"/><path class="cls-25" d="M896.78,199.11a14.49,14.49,0,0,1-4.62-2.8l0,0a3.88,3.88,0,0,0-.3,6.76l11.21,7a3.89,3.89,0,0,0,5.94-3.25l.13-10.32a9.59,9.59,0,0,1-4.42,2.95A12.14,12.14,0,0,1,896.78,199.11Z" transform="translate(-63.21 -63.21)"/><polygon class="cls-21" points="751.26 202.4 749 200.99 679.26 309.45 684.6 312.78 751.26 202.4"/><path class="cls-22" d="M817.65,254.33l-6.51,3.3a2.22,2.22,0,0,0-.17,3.87l6.42,4a2.22,2.22,0,0,0,3.4-1.86l.09-7.29A2.23,2.23,0,0,0,817.65,254.33Z" transform="translate(-63.21 -63.21)"/><path class="cls-23" d="M794.29,257.42l14.84,2-32.28,1.72a.7.7,0,0,1-.12-1.39Z" transform="translate(-63.21 -63.21)"/><path class="cls-21" d="M794.58,262.93l14.55-3.54-32.28,1.72a.7.7,0,0,0,0,1.4Z" transform="translate(-63.21 -63.21)"/><path class="cls-21" d="M828.4,278.67l-8.31-12.45L832.78,296a.7.7,0,0,0,1.3-.5Z" transform="translate(-63.21 -63.21)"/><path class="cls-23" d="M823.33,280.84l-3.24-14.62L832.78,296a.7.7,0,0,1-1.27.59Z" transform="translate(-63.21 -63.21)"/><path class="cls-23" d="M830.59,242.38l-10.12,11L837.55,226a.7.7,0,0,1,1.22.69Z" transform="translate(-63.21 -63.21)"/><path class="cls-21" d="M825.9,239.46l-5.43,13.95L837.55,226a.7.7,0,0,0-1.16-.79Z" transform="translate(-63.21 -63.21)"/><path class="cls-24" d="M813.82,259.22a7,7,0,0,0,4.51.2,5.46,5.46,0,0,0,2.53-1.69l0-1.39a2.23,2.23,0,0,0-3.23-2l-6.48,3.28A8.56,8.56,0,0,0,813.82,259.22Z" transform="translate(-63.21 -63.21)"/><path class="cls-25" d="M813.82,259.22a8.56,8.56,0,0,1-2.65-1.61l0,0a2.22,2.22,0,0,0-.17,3.87l6.42,4a2.22,2.22,0,0,0,3.4-1.86l.07-5.9a5.46,5.46,0,0,1-2.53,1.69A7,7,0,0,1,813.82,259.22Z" transform="translate(-63.21 -63.21)"/><path class="cls-26" d="M583.57,280.18c-1-3.24,1.57-6.44,4.09-8.72s5.44-4.93,5.25-8.33c-.17-3.1-3-5.46-6-6.42s-6.15-.92-9.2-1.54-6.22-2.16-7.41-5c-1.34-3.25.38-7.08,3-9.45s6-3.71,9-5.44,6.08-4.11,7.08-7.49c1.46-5-2.18-10.33-6.92-12.44s-10.17-1.71-15.29-.91c-4,.62-9.05,1-11.2-2.4-1.32-2.1-.89-4.88.15-7.13s2.62-4.22,3.63-6.48a14.51,14.51,0,0,0-22.57-17.06,14.71,14.71,0,0,0-2.8,18.44c2.14,3.38,5.87,6.27,5.71,10.27-.16,4.16-4.42,6.77-8.16,8.59s-8,4.31-8.35,8.46,3.63,7.35,7.3,9.41,7.89,4.33,8.82,8.43c1,4.43-2.42,8.59-5.9,11.51s-7.42,5.54-10.77,8.72-6.22,7.14-7,11.69.9,9.74,4.89,12.07c2.53,1.49,5.58,1.68,8.46,2.24s6,1.75,7.32,4.34c1,1.87.88,4.1,1.25,6.18a13.8,13.8,0,0,0,7.18,9.71c4.26,2.19,7.49.84,11.84.54s7.94.48,12.21-1.56a38.86,38.86,0,0,0,6.19-4l11.48-8.48c2.81-2.07,6-5,5.15-8.4C591,285.33,584.86,284.27,583.57,280.18Z" transform="translate(-63.21 -63.21)"/><polygon class="cls-27" points="513.17 223.52 512.03 222.72 495.97 233.44 495.65 203.2 493.28 203.2 493.1 219.64 477.15 209.01 476.02 209.8 493.07 222.32 492.38 295.07 496.56 295.07 496 236.13 513.17 223.52"/><path class="cls-28" d="M576.67,289c.55-2.46,1.84-4.87,1.46-7.36-.46-3.1-3.4-5.28-6.39-6.22s-6.19-1-9.22-1.76a19.38,19.38,0,0,1-6.65-34.35c3.66-2.7,8.13-4,12.11-6.2s7.77-5.7,8.11-10.23c.36-4.69-3.07-8.85-6.88-11.61s-8.24-4.74-11.5-8.13c-7.35-7.63-5.83-21.84,3-27.73,4.23-2.83,9.42-3.77,14.06-5.85s9.12-6.13,9-11.21c-.13-5.44-5.22-9.18-8.58-13.46-6.68-8.54-6.36-21.8.72-30s20.16-10.47,29.59-5.11,14.16,17.76,10.72,28.05c-1.48,4.43-4.24,8.33-6.08,12.63s-2.65,9.49-.24,13.5c5.74,9.56,22.81,4,29.81,12.72,4,5,2.62,12.55-.8,18s-8.48,9.6-12.16,14.85-5.79,12.47-2.53,18c2.38,4,6.92,6.07,10.81,8.64s7.6,6.75,6.69,11.32c-1.61,8.14-15.31,8.53-17.44,16.55-1.28,4.79,2.42,9.35,3.56,14.18C634.72,307.37,570.94,315,576.67,289Z" transform="translate(-63.21 -63.21)"/><polygon class="cls-29" points="555.01 204.81 553.77 203.94 536.24 215.64 535.89 182.62 533.3 182.62 533.1 200.57 515.69 188.96 514.45 189.83 533.07 203.5 532.31 282.94 536.88 282.94 536.26 218.57 555.01 204.81"/><path class="cls-30" d="M220.18,490.45c-6.84-15.36-8.7-33.73-1.11-48.66,6.06-11.93,17.55-20.48,30.08-25.28s26.13-6.18,39.57-6.62a302.35,302.35,0,0,1,47,2.14c6.3.79,17.92,2.52,21.2,7.93,2.82,4.65,1.8,10.55.58,15.83-6,26.16-19.2,51.49-30.27,75.95-5.48,12.1-12.22,24.63-23.94,30.94C267.82,561.74,232.7,518.55,220.18,490.45Z" transform="translate(-63.21 -63.21)"/><path class="cls-31" d="M352.49,436.47a199.64,199.64,0,0,1-45.82,73.62c-5.67,5.77-12.07,11.4-19.94,13.24-6.57,1.53-13.54.24-19.75-2.39s-11.78-6.5-17.31-10.36l-29.76-20.76.27.63c12.52,28.1,47.64,71.29,83.09,52.23,11.72-6.31,18.46-18.84,23.94-30.94,11.07-24.46,24.24-49.79,30.27-75.95a33.75,33.75,0,0,0,1.17-10.05,11.55,11.55,0,0,0-2.28,2.3C354.5,430.52,353.51,433.53,352.49,436.47Z" transform="translate(-63.21 -63.21)"/><path class="cls-32" d="M772.17,860.72c1.29-13.28,11.94-23.85,23.53-30.47s24.6-10.48,36-17.41a77.11,77.11,0,0,0,16.48-118.37c-10-10.8-23.89-20-26.22-34.6-2.65-16.55,11-30.83,23.74-41.71s27-24,26.19-40.73c-.84-17.12-16.9-28.75-30.35-39.38s-26.88-27.35-20.38-43.21c7.1-17.32,31.32-18.44,47.27-28a328.61,328.61,0,0,0-86.28-85c-14.3-3.48-28.71-9.59-43.62-8.3-33.88,2.92-76.56,28.08-75.1,66.58.84,21.91,17.47,40.59,36.84,50.87s41.44,13.92,62.82,18.79,43.29,11.51,59.48,26.3,25,39.77,15.11,59.36c-10.48,20.83-38.66,31.06-42.72,54-5.38,30.42,35.39,50.16,40.52,80.63,4.61,27.43-22.21,51-49.24,57.55s-55.61,2.43-83,7.4-56.15,24.37-56.4,52.19c-.11,11.18,4.5,22,4.34,33.2-.42,28.68-31.83,47.84-60.46,49.46s-56.7-8.24-85.35-9.67c-19.51-1-43.56,5.79-47.61,24.91-.14.7-.26,1.4-.34,2.1A327,327,0,0,0,801.07,910.7C788.26,894.73,770.27,880.33,772.17,860.72Z" transform="translate(-63.21 -63.21)"/><path class="cls-33" d="M745.49,271a56,56,0,0,1,39.94,27.71c5.91,10.73,7.77,23,6.9,34.64s-4.33,22.74-8.54,33.39c-1.86,4.71-4,9.56-8.19,12.46-6.15,4.28-14.89,3.2-22.71,1.56-20.26-4.28-37.26-11.61-58.92-20.71-7.43-3.12-14.75-8.19-17.74-15.46-2.44-5.92-1.26-12.35.5-18.14,6.93-22.8,22.55-45.31,46.17-53.35A48.8,48.8,0,0,1,745.49,271Z" transform="translate(-63.21 -63.21)"/><path class="cls-34" d="M740.46,367.52c-11-5-21.72-11.43-28.91-19.89a40.33,40.33,0,0,1-6.75-42A59.38,59.38,0,0,1,712.08,293a104.7,104.7,0,0,1,8.36-9.85c1.55-1.64,3.15-3.26,4.78-4.86,1-1,4.13-2.9,4.21-4.36a2.66,2.66,0,0,0-1.12-2.3,49.11,49.11,0,0,0-5.41,1.5c-23.62,8-39.24,30.55-46.17,53.35-1.76,5.79-2.94,12.22-.5,18.14,3,7.27,10.31,12.34,17.74,15.46,21.66,9.1,38.66,16.43,58.92,20.7,6.82,1.44,14.34,2.45,20.23-.17C762.3,376.08,751.13,372.36,740.46,367.52Z" transform="translate(-63.21 -63.21)"/><path class="cls-35" d="M843.27,384.79c2.69-9.8,4.51-19.58,4.41-28.63s-2.17-17.35-6.83-23.17c-7.15-8.93-20-11.3-33.47-8.5s-27.58,10.36-40.85,19.66a63.21,63.21,0,0,0-10.11,8.37c-3.08,3.28-5.71,7.29-6.7,11.26-1.62,6.45.52,11.89,4.16,15.24,21,19.36,37.21,32.43,57.92,46.87a16.9,16.9,0,0,0,10.86,2.67c4.75-.33,6.31-6.44,8.44-11A208.21,208.21,0,0,0,843.27,384.79Z" transform="translate(-63.21 -63.21)"/><path class="cls-36" d="M844.29,367a54.45,54.45,0,0,1-13,18.91,40.55,40.55,0,0,1-10.83,7.21c-11.43,5.13-24.84,4.37-36.73.4s-22.37-10.8-32.6-17.88a14.34,14.34,0,0,0,2.71,3.4c21,19.36,37.21,32.43,57.92,46.87a16.9,16.9,0,0,0,10.86,2.67c4.75-.33,6.31-6.44,8.44-11a208.21,208.21,0,0,0,12.17-32.79c2.65-9.67,4.46-19.33,4.41-28.28-.66,1.42-.86,3.58-1.31,4.95C845.76,363.33,845.07,365.18,844.29,367Z" transform="translate(-63.21 -63.21)"/><path class="cls-37" d="M1107,441c-.51-5.83-5.4-10.54-10.88-12.62s-11.5-2-17.36-2l-95,1.09c-7.88.09-17.61-1-20.54-8.29s3.68-15.08,11-17.62,15.37-1.75,23-3.31,15.59-7,15.65-14.71c0-5.8-4.57-10.82-9.92-13.07s-11.33-2.3-17.13-2.32l-65.36-.26-119.31-.46c-9.07,0-18.37.54-27.4-.32-5.15-.49-11.14-3.09-16.32-2.33-11.94,1.76-18.89,18.27-8.4,26.57,6.13,4.84,14.87,3.79,22.58,2.49l34.92-5.9c7.17-1.21,16.08-1.72,20.07,4.36,2.61,4,1.76,9.58-1.15,13.35s-7.5,5.92-12.15,7c-10.1,2.33-20.79.09-31,2.07S761.76,426,764.79,435.93c2.26,7.39,10.88,11,18.6,11.05s15.29-2.3,23-2.37c5.93-.06,13.24,2.78,13.48,8.71.25,6.14-7,9.4-13,11l-49.74,13.11c-4.67,1.23-9.48,2.53-13.29,5.5s-6.37,8.09-4.9,12.69c2.24,7,11.31,8.44,18.64,8.65l224.08,6.58c6.84.2,14,.33,20.12-2.79s10.54-10.63,7.83-16.92c-3.13-7.31-12.87-8.41-20.82-8.41H917.58c-6.33,0-14.44-1.35-15.77-7.54-.85-4,2-8,5.68-9.86s7.89-2,12-2.09L1078.14,459c6.39-.17,13-.38,18.79-3.08S1107.56,447.34,1107,441Z" transform="translate(-63.21 -63.21)"/><rect class="cls-38" x="641.06" y="277.1" width="73.23" height="52.14" transform="matrix(0.96, 0.27, -0.27, 0.96, 44.62, -235.9)"/><polygon class="cls-39" points="572.14 255.1 642.62 274.99 656.78 224.81 572.14 255.1"/><path class="cls-40" d="M717.91,287.44,707,284.35h0l-1.44-.41h0l-12.89-3.63h0l-1.44-.41h0l-12.89-3.64h0l-1.44-.41h0L664,272.22h0l-1.44-.41h0l-10.95-3.09-2.07-.59-.59,2.08-4,14.18h0l-.41,1.45h0l-4.17,14.77h0l-.41,1.44h0l-4,14.18-.59,2.08,2.08.59L648.37,322h0l1.45.41h0L662.71,326h0l1.44.41h0L677,330.07h0l1.44.41h0l12.89,3.64h0l1.44.41h0l10.94,3.08,2.08.59.58-2.08,13-46L720,288Zm-13-1.42-4,14.18-12.89-3.63,4-14.19Zm3.81,33.89-11-3.09L702,302.05l10.95,3.09Zm-12.39-3.49-12.89-3.64L687.64,298l12.89,3.64ZM673.31,294l12.89,3.64L682,312.37l-12.89-3.64Zm-5.61,14.37-12.89-3.64L659,289.92l12.89,3.64ZM690.61,282l-4,14.18-12.89-3.64,4-14.18Zm-14.33-4.05-4,14.18-12.89-3.63,4-14.19ZM651,270.8,662,273.89l-4,14.18L647,285Zm-4.41,15.62,10.94,3.09-4.17,14.77-10.94-3.09ZM638,316.82l4-14.18L653,305.72l-4,14.19Zm12.38,3.49,4-14.18,12.88,3.64-4,14.18Zm14.33,4.05,4-14.18,12.89,3.63-4,14.19Zm14.33,4,4-14.18L696,317.86,692,332Zm14.33,4.05,4-14.18,10.94,3.08-4,14.19Zm19.93-28.75-10.94-3.09,4-14.18,11,3.09Z" transform="translate(-63.21 -63.21)"/><path class="cls-41" d="M669.88,345.9,662,343.67a5,5,0,0,0-6.19,3.46h0l17.56,5h0A5,5,0,0,0,669.88,345.9Z" transform="translate(-63.21 -63.21)"/><rect class="cls-41" x="667" y="326.85" width="2.52" height="19.28" transform="translate(53.32 -232.08) rotate(15.76)"/><rect class="cls-23" x="601.18" y="283.21" width="59.16" height="42.12" transform="translate(-55.19 -79.31) rotate(1.47)"/><polygon class="cls-21" points="537.43 261.35 596.57 262.87 597.65 220.76 537.43 261.35"/><path class="cls-42" d="M659.13,283.93l-9.19-.24h0l-1.21,0h0l-10.81-.28h0l-1.21,0h0l-10.82-.28h0l-1.21,0h0l-10.82-.27h0l-1.21,0h0l-9.18-.23-1.74-.05-.05,1.75-.3,11.9h0l0,1.21h0l-.31,12.4h0l0,1.21h0l-.3,11.9-.05,1.74,1.75.05,9.18.23h0l1.21,0h0l10.82.28h0l1.21,0h0l10.81.28h0l1.21,0h0l10.82.28h0l1.21,0h0L658,326l1.75,0,0-1.74,1-38.62,0-1.75Zm-10.44,1.47-.31,11.91L637.56,297l.31-11.9Zm9.74,25.78-9.19-.23.32-12.4,9.18.23Zm-10.4-.27-10.82-.27.32-12.4,10.82.28Zm-22.52-13,10.81.28-.31,12.4-10.82-.28ZM624,310.3,613.16,310l.32-12.4,10.82.28Zm12.68-25.2-.3,11.9-10.82-.28.3-11.9Zm-12-.31-.3,11.9-10.82-.28.31-11.9Zm-21.21-.55,9.19.24-.31,11.9-9.18-.24Zm-.33,13.11,9.18.24L612,310l-9.18-.24Zm-.66,25.51.31-11.9,9.18.24-.3,11.9Zm10.39.27.31-11.9,10.82.28-.31,11.9Zm12,.31.31-11.9,10.81.27-.3,11.91Zm12,.31.3-11.9,10.82.27L647.7,324Zm12,.31.3-11.91,9.18.24-.3,11.9Zm9.87-26.49-9.19-.23.31-11.9,9.18.23Z" transform="translate(-63.21 -63.21)"/><path class="cls-22" d="M633.18,339.28l-6.64-.17a4.05,4.05,0,0,0-4.15,3.95h0l14.73.37h0A4.05,4.05,0,0,0,633.18,339.28Z" transform="translate(-63.21 -63.21)"/><rect class="cls-22" x="629.02" y="324.45" width="2.04" height="15.58" transform="translate(-54.47 -79.29) rotate(1.47)"/><path class="cls-43" d="M227,489.44c-2.22-2.69-6.14-3-9.26-2.83s-6.73.42-9.48-1.83a7.84,7.84,0,0,1-2.49-7.86c.63-2.51,2.19-4.53,3.14-6.88a8.13,8.13,0,0,0-.64-7.91c-2.08-2.91-6.11-4.19-9.34-4s-6,1.51-8.89,2.41a13.59,13.59,0,0,1-9.66-.14,12.64,12.64,0,0,1-7.07-12.23c.52-4.36,3.47-7.61,6.6-10.4,2.45-2.19,5.23-5.16,3.39-8.7-1.13-2.16-3.65-3.62-6-4.36s-4.79-1-7.17-1.72c-6-1.93-11.31-7.56-12.38-13.16a9.91,9.91,0,0,1,9-12c6.16-.57,13.72,3.81,16.76,9.72,1.79,3.49,2.41,7.7,5.83,10.1s7.78,1.4,11.1.13,7.47-2.46,11.09-.08,4.4,6.94,4.35,10.58-.18,7.79,2.8,11c3.22,3.42,8.34,3.81,12.45,3.4s8.2-1.31,12.47-1.47A24.88,24.88,0,0,1,256.72,444c4.19,2.34,7.7,6.67,7.74,10.69,0,2.56-1.29,4.64-2.2,6.84s-1.41,4.92.1,7.42c1.09,1.8,3,3.13,4.56,4.67,3.08,3,4.85,7.11,4.66,10.69-.22,4.11-2.91,5.34-5.25,7.94s-3.43,5.41-7.18,6.88a31.86,31.86,0,0,1-6.32,1.48l-12.6,2.08c-3.09.51-7,.7-9.5-1.95C227.72,497.46,229.81,492.83,227,489.44Z" transform="translate(-63.21 -63.21)"/><polygon class="cls-44" points="172.74 425.7 172.62 424.48 189.3 420.85 164.19 401.73 165.33 400.21 179.16 410.37 177.94 393.48 179.15 393.24 181.41 412.03 242.53 457.1 240.51 459.78 191.53 422.55 172.74 425.7"/><path class="cls-45" d="M258.86,459.24c-10.37,1.87-25.07-2.66-34.15-13.54-8-9.54-10.49-22.28-20.42-29.71-8.41-6.3-17.75-5.39-25-3.27s-14.92,5-24,1.29c-10.51-4.28-18.92-16.32-20.92-26.42s1-18.54,4.71-26,8.22-14.54,9.38-23.54-1.75-20.66-10.25-29.51c-5.87-6.11-13.64-10.16-19.14-16.53-5.79-6.7-8-15-7.23-21.52s4.32-11.54,8.48-15.72c7.07-7.1,16.58-12.3,28.7-11.82s27.08,7.6,36.3,19.37c7.3,9.33,11.13,21.29,20.92,27.86,8.54,5.74,17.46,4.43,24.49,2.1s14.44-5.31,23.4-2c10.14,3.76,18.8,14.8,22,24.72s2.08,19,.59,27.46c-.76,4.33-1.61,8.78-.28,13.8s5.48,10.82,10.64,12.89c7.11,2.86,11.86-2.44,18.77-1.34,8.66,1.37,16.86,12.63,17.43,20.9s-4,14-8.44,19.36c-9,10.72-17.8,21.58-26.92,32.18-3.41,4-7.93,6.85-12,10.25a44.9,44.9,0,0,1-8,5.55C265.62,457.27,260.49,457.53,258.86,459.24Z" transform="translate(-63.21 -63.21)"/><polygon class="cls-46" points="218 317.21 216.25 317.48 213.1 342 182.91 313.75 180.88 315.87 196.99 331.56 172.83 335.82 172.64 337.59 199.62 334.11 271 403.39 274.57 399.65 215.78 344.51 218 317.21"/><path class="cls-47" d="M319.73,402c-1.05-2-1.58-4.31-3.26-5.76-2.1-1.8-5.31-1.57-7.85-.47s-4.7,2.91-7.18,4.14a17.1,17.1,0,0,1-24.22-19.12c.89-3.9,3.11-7.36,4.52-11.11s1.9-8.28-.48-11.5S274.11,354,270,354.39s-8.23,1.57-12.36,1.19c-9.31-.86-16.47-11.23-14-20.24,1.19-4.32,4.12-7.93,6-12s2.56-9.35-.45-12.68c-3.22-3.55-8.77-3.11-13.48-4a20.85,20.85,0,1,1,23.33-28.36c1.56,3.82,2,8,3.21,11.94s3.7,7.87,7.62,9.16c9.34,3.07,17.55-10.45,27.22-8.68,5.56,1,9,6.87,9.82,12.45s-.13,11.3.44,16.92,3.31,11.67,8.67,13.47c3.89,1.31,8.11.06,12.19-.45s9,.13,11,3.7c3.61,6.36-5.31,14.52-2.12,21.1,1.91,3.93,7,4.85,10.54,7.41C369.1,380.85,330.88,422.66,319.73,402Z" transform="translate(-63.21 -63.21)"/><polygon class="cls-48" points="272.21 300.86 270.89 301 265.91 318.91 246.66 297.06 244.93 298.56 255.14 310.66 236.83 312.94 236.5 314.23 256.8 312.63 302.06 366.12 305.1 363.49 267.62 320.86 272.21 300.86"/><path class="cls-49" d="M389.11,320.16c7.38-12.63,22.52-16.5,38.35-12.55s32.17,15,46.63,28.77a40.33,40.33,0,0,1,6.3,7.14c1.77,2.72,3,6,2.72,8.63a8.57,8.57,0,0,1-2.82,5.23c-15.36,15.57-32.35,27-53.43,38-6.67,3.46-14.81,5.32-23.52,1.26-5.74-2.68-11.34-8.14-15-14.62-5.87-10.43-5-22.12-5.1-31.9C383.12,339,384.44,328.14,389.11,320.16Z" transform="translate(-63.21 -63.21)"/><path class="cls-50" d="M478.43,355.75a15,15,0,0,0-4.46,2.69c-9.21,7.06-19.48,13.08-30.79,15.71s-23.79,1.59-33.62-4.6A44.81,44.81,0,0,1,396.87,357,103,103,0,0,1,389,342.66c-1.23-2.57-2.62-5.64-4.72-7.79a90.05,90.05,0,0,0-1,15.24c.12,9.78-.77,21.47,5.1,31.9,3.65,6.48,9.25,11.94,15,14.62,8.71,4.06,16.85,2.2,23.52-1.26,21.08-10.95,38.07-22.42,53.43-38a13.72,13.72,0,0,0,1.44-1.67A5.47,5.47,0,0,0,478.43,355.75Z" transform="translate(-63.21 -63.21)"/><path class="cls-35" d="M311,414.54c-6.32-16.56-9.85-33.57-7.32-47.61,2-11.15,7.75-20,14.93-27,6.47-6.32,14.35-11.39,24.3-12.49,12.29-1.36,26.94,3.48,40.71,11.21s26.84,18.23,39.49,29.06c3.69,3.16,7.65,6.75,9.28,11,2.49,6.5-1.56,10.9-5.39,14q-24.56,20.07-49.39,39.81Q365.37,442.37,353,452c-4.1,3.21-7.95,7.17-12.52,9.78-3.46,2-6-.27-8.91-5C323.21,443.43,316.57,428.44,311,414.54Z" transform="translate(-63.21 -63.21)"/><path class="cls-51" d="M421.55,395.36a9.31,9.31,0,0,0-4.24,2.15A82,82,0,0,1,355.66,412a80,80,0,0,1-20.58-6.58,82.65,82.65,0,0,1-16.29-10.21c-4.83-3.87-8.51-8.75-13.09-12.82a10.54,10.54,0,0,0-2.69-1.81c.6,10.79,3.64,22.51,8,34,5.53,13.9,12.17,28.89,20.54,42.3,2.93,4.71,5.45,7,8.91,5,4.57-2.61,8.42-6.57,12.52-9.78q12.35-9.68,24.64-19.44,23-18.32,45.81-36.9A3.62,3.62,0,0,0,421.55,395.36Z" transform="translate(-63.21 -63.21)"/><path class="cls-52" d="M339.75,453.86a.58.58,0,0,0,.77.88A.58.58,0,0,0,339.75,453.86Z" transform="translate(-63.21 -63.21)"/><path class="cls-52" d="M336.81,448.25a1.15,1.15,0,0,0,1.51,1.72A1.15,1.15,0,0,0,336.81,448.25Z" transform="translate(-63.21 -63.21)"/><path class="cls-52" d="M341.07,449.15a1,1,0,0,0,1.34,1.52A1,1,0,0,0,341.07,449.15Z" transform="translate(-63.21 -63.21)"/><path class="cls-52" d="M346.82,447a1.3,1.3,0,0,0,1.71,1.95A1.3,1.3,0,0,0,346.82,447Z" transform="translate(-63.21 -63.21)"/><path class="cls-52" d="M342.09,453.7A.84.84,0,0,0,343.2,455,.84.84,0,0,0,342.09,453.7Z" transform="translate(-63.21 -63.21)"/><path class="cls-52" d="M339.28,446.83a.92.92,0,0,0-1.21-1.38A.92.92,0,0,0,339.28,446.83Z" transform="translate(-63.21 -63.21)"/><path class="cls-52" d="M332.84,441.76a.8.8,0,0,0,1.06,1.2A.8.8,0,0,0,332.84,441.76Z" transform="translate(-63.21 -63.21)"/><path class="cls-52" d="M330.43,440.15a.87.87,0,0,0-1.15-1.31A.87.87,0,0,0,330.43,440.15Z" transform="translate(-63.21 -63.21)"/><path class="cls-52" d="M330.49,434.29a1,1,0,0,0-1.3-1.49A1,1,0,0,0,330.49,434.29Z" transform="translate(-63.21 -63.21)"/><path class="cls-52" d="M335.27,435.2a1,1,0,0,0,1.26,1.43A1,1,0,0,0,335.27,435.2Z" transform="translate(-63.21 -63.21)"/><path class="cls-52" d="M338.92,441.89a1.17,1.17,0,0,0,1.54,1.76A1.17,1.17,0,0,0,338.92,441.89Z" transform="translate(-63.21 -63.21)"/><path class="cls-52" d="M348.57,438.75a1.07,1.07,0,0,0,1.42,1.61A1.07,1.07,0,0,0,348.57,438.75Z" transform="translate(-63.21 -63.21)"/><path class="cls-52" d="M351,444.64a1,1,0,0,0,1.32,1.51A1,1,0,0,0,351,444.64Z" transform="translate(-63.21 -63.21)"/><path class="cls-52" d="M342.7,440.26a1.21,1.21,0,0,0,1.59,1.81A1.21,1.21,0,0,0,342.7,440.26Z" transform="translate(-63.21 -63.21)"/><path class="cls-52" d="M343.28,434.71a.89.89,0,0,0,1.17,1.33A.89.89,0,0,0,343.28,434.71Z" transform="translate(-63.21 -63.21)"/><path class="cls-52" d="M353.94,434.68a1,1,0,0,0,1.27,1.44A1,1,0,0,0,353.94,434.68Z" transform="translate(-63.21 -63.21)"/><path class="cls-52" d="M357.79,439.06a.91.91,0,0,0,1.21,1.37A.91.91,0,0,0,357.79,439.06Z" transform="translate(-63.21 -63.21)"/><path class="cls-52" d="M354.24,442.08a.8.8,0,0,0,1.05,1.2A.8.8,0,0,0,354.24,442.08Z" transform="translate(-63.21 -63.21)"/><path class="cls-52" d="M363.64,431a1.23,1.23,0,0,0,1.62,1.84A1.23,1.23,0,0,0,363.64,431Z" transform="translate(-63.21 -63.21)"/><path class="cls-52" d="M372.18,427.74a1,1,0,0,0,1.37,1.55A1,1,0,0,0,372.18,427.74Z" transform="translate(-63.21 -63.21)"/><path class="cls-52" d="M379.51,424.21a.72.72,0,0,0,.95,1.07A.72.72,0,0,0,379.51,424.21Z" transform="translate(-63.21 -63.21)"/><path class="cls-52" d="M361.92,437a1.06,1.06,0,0,0,1.4,1.6A1.06,1.06,0,0,0,361.92,437Z" transform="translate(-63.21 -63.21)"/><path class="cls-52" d="M357.56,432a1,1,0,0,0,1.25,1.43A1,1,0,0,0,357.56,432Z" transform="translate(-63.21 -63.21)"/><path class="cls-52" d="M370.54,424.45a.64.64,0,0,0-.84-1A.64.64,0,0,0,370.54,424.45Z" transform="translate(-63.21 -63.21)"/><path class="cls-52" d="M369.14,432.48a.79.79,0,0,0,1.05,1.18A.79.79,0,0,0,369.14,432.48Z" transform="translate(-63.21 -63.21)"/><path class="cls-52" d="M349.17,431.23a.92.92,0,0,0,1.21,1.38A.92.92,0,0,0,349.17,431.23Z" transform="translate(-63.21 -63.21)"/><path class="cls-52" d="M335.73,427.81a1,1,0,0,0,1.29,1.47A1,1,0,0,0,335.73,427.81Z" transform="translate(-63.21 -63.21)"/><path class="cls-52" d="M329.34,429a1.12,1.12,0,0,0-1.48-1.68A1.12,1.12,0,0,0,329.34,429Z" transform="translate(-63.21 -63.21)"/><path class="cls-52" d="M325,418.72a1.07,1.07,0,0,0,1.42,1.61A1.07,1.07,0,0,0,325,418.72Z" transform="translate(-63.21 -63.21)"/><path class="cls-52" d="M322.35,421.63a.85.85,0,0,0-1.12-1.28A.85.85,0,0,0,322.35,421.63Z" transform="translate(-63.21 -63.21)"/><path class="cls-52" d="M325.43,428.24a1,1,0,0,0-1.25-1.42A.95.95,0,0,0,325.43,428.24Z" transform="translate(-63.21 -63.21)"/><path class="cls-52" d="M321.35,412.29a.64.64,0,0,0-.84-1A.64.64,0,0,0,321.35,412.29Z" transform="translate(-63.21 -63.21)"/><path class="cls-52" d="M320.85,407.76a.82.82,0,0,0-1.09-1.23A.82.82,0,0,0,320.85,407.76Z" transform="translate(-63.21 -63.21)"/><path class="cls-52" d="M333.9,421.2a.88.88,0,0,0-1.16-1.31A.88.88,0,0,0,333.9,421.2Z" transform="translate(-63.21 -63.21)"/><path class="cls-52" d="M340.83,424.57a1.08,1.08,0,0,0-1.42-1.62A1.08,1.08,0,0,0,340.83,424.57Z" transform="translate(-63.21 -63.21)"/><path class="cls-52" d="M349.43,420.51A1,1,0,0,0,350.7,422,1,1,0,0,0,349.43,420.51Z" transform="translate(-63.21 -63.21)"/><path class="cls-52" d="M354.31,424.92a.77.77,0,0,0,1,1.16A.77.77,0,0,0,354.31,424.92Z" transform="translate(-63.21 -63.21)"/><path class="cls-52" d="M345,429.57A1,1,0,0,0,343.6,428,1,1,0,0,0,345,429.57Z" transform="translate(-63.21 -63.21)"/><path class="cls-52" d="M339.54,430.16a.8.8,0,0,0,1,1.2A.8.8,0,0,0,339.54,430.16Z" transform="translate(-63.21 -63.21)"/><path class="cls-52" d="M338.29,433.83a.92.92,0,0,0,1.21,1.38A.92.92,0,0,0,338.29,433.83Z" transform="translate(-63.21 -63.21)"/><path class="cls-52" d="M341.5,439.18a.93.93,0,0,0-1.22-1.39A.93.93,0,0,0,341.5,439.18Z" transform="translate(-63.21 -63.21)"/><path class="cls-52" d="M337,441.12a1.09,1.09,0,0,0-1.44-1.63A1.09,1.09,0,0,0,337,441.12Z" transform="translate(-63.21 -63.21)"/><path class="cls-52" d="M333.38,447.75a.8.8,0,0,0,1.06,1.2A.8.8,0,0,0,333.38,447.75Z" transform="translate(-63.21 -63.21)"/><path class="cls-52" d="M345.56,445.49a1.07,1.07,0,0,0-1.41-1.6A1.07,1.07,0,0,0,345.56,445.49Z" transform="translate(-63.21 -63.21)"/><path class="cls-52" d="M337.16,451.48a.91.91,0,0,0,1.21,1.37A.91.91,0,0,0,337.16,451.48Z" transform="translate(-63.21 -63.21)"/><path class="cls-52" d="M345.68,451.31a1.11,1.11,0,0,0,1.47,1.66A1.11,1.11,0,0,0,345.68,451.31Z" transform="translate(-63.21 -63.21)"/><path class="cls-52" d="M349.54,442.11a1.08,1.08,0,0,0,1.43,1.63A1.08,1.08,0,0,0,349.54,442.11Z" transform="translate(-63.21 -63.21)"/><path class="cls-52" d="M347.55,436.16a1,1,0,0,0-1.29-1.45A1,1,0,0,0,347.55,436.16Z" transform="translate(-63.21 -63.21)"/><path class="cls-52" d="M354.12,438.83a.9.9,0,0,0,1.18,1.35A.9.9,0,0,0,354.12,438.83Z" transform="translate(-63.21 -63.21)"/><path class="cls-52" d="M334.05,426.18A.8.8,0,0,0,333,425,.8.8,0,0,0,334.05,426.18Z" transform="translate(-63.21 -63.21)"/><path class="cls-52" d="M333.56,432.12a1,1,0,0,0-1.34-1.52A1,1,0,0,0,333.56,432.12Z" transform="translate(-63.21 -63.21)"/><path class="cls-52" d="M325.5,432a.46.46,0,0,0-.6-.69C324.46,431.7,325.06,432.39,325.5,432Z" transform="translate(-63.21 -63.21)"/><path class="cls-52" d="M328.79,423.86a1,1,0,0,0-1.31-1.49A1,1,0,0,0,328.79,423.86Z" transform="translate(-63.21 -63.21)"/><path class="cls-52" d="M346.86,426.06a.91.91,0,0,0,1.21,1.37A.91.91,0,0,0,346.86,426.06Z" transform="translate(-63.21 -63.21)"/><path class="cls-52" d="M352.67,428.15a1.11,1.11,0,0,0,1.46,1.66A1.11,1.11,0,0,0,352.67,428.15Z" transform="translate(-63.21 -63.21)"/><path class="cls-52" d="M364.53,426.38a1.1,1.1,0,0,0-1.45-1.65A1.1,1.1,0,0,0,364.53,426.38Z" transform="translate(-63.21 -63.21)"/><path class="cls-52" d="M360.44,435.29a1,1,0,0,0-1.31-1.49A1,1,0,0,0,360.44,435.29Z" transform="translate(-63.21 -63.21)"/><path class="cls-52" d="M366.26,426.93a1.26,1.26,0,0,0,1.66,1.89A1.26,1.26,0,0,0,366.26,426.93Z" transform="translate(-63.21 -63.21)"/><path class="cls-52" d="M357.32,426.09a.89.89,0,0,0,1.17,1.33A.89.89,0,0,0,357.32,426.09Z" transform="translate(-63.21 -63.21)"/><path class="cls-52" d="M366.56,433.77a1.15,1.15,0,0,0,1.52,1.73A1.15,1.15,0,0,0,366.56,433.77Z" transform="translate(-63.21 -63.21)"/><path class="cls-52" d="M375.13,427.52a1.12,1.12,0,0,0,1.48,1.68A1.12,1.12,0,0,0,375.13,427.52Z" transform="translate(-63.21 -63.21)"/><path class="cls-52" d="M374,423.29a1.13,1.13,0,0,0,1.49,1.7A1.13,1.13,0,0,0,374,423.29Z" transform="translate(-63.21 -63.21)"/><path class="cls-53" d="M431.54,463.53c9.59-.44,19.68-.77,28.22,3.6s14.58,15.21,10.32,23.81c-3.76,7.61-13.16,10-20.85,13.64S434,517,438.3,524.35c6.06,10.34,26.33,2.49,31.59,13.38a10.41,10.41,0,0,1-2.13,11.72c-5.81,6-13.95,6-21.59,6l-139.52-1.18c-6.52-.06-13.43,0-18.52,4.9a9.35,9.35,0,0,0-2.57,9.46c2,6.31,10,7.23,16.41,7.18l42.42-.33c4.86,0,9.86-.06,14.4,1.68s8.58,5.67,9,10.51c.43,5.15-3.38,9.9-8,12.19s-9.95,2.64-15.11,2.91A1205.9,1205.9,0,0,1,157.4,598c-10.85-1.13-23.56-3.69-28.06-13.63-4-8.73,1-19.49,8.85-24.94s17.87-6.71,27.45-7.08,19.34,0,28.5-2.83c7.77-2.38,15.21-7.39,17.51-15.55a14.37,14.37,0,0,0-2.07-12.55c-4.6-6.16-12.6-6-19.47-4.51-5.78,1.25-11.61,3.26-17.47,2.46s-11.75-5.75-11-11.61c.92-7,9.51-9.55,16.47-10.58,15.5-2.28,31.74-.19,47.4.26,14,.4,55.63-2.27,38.56-12.92-6.83-3.07-9.62-2.19-15.4-5a6.2,6.2,0,0,1,2.75-11.76c20.67.08,41.32,1.62,62,1.16C352.82,468,392.21,465.33,431.54,463.53Z" transform="translate(-63.21 -63.21)"/><path class="cls-54" d="M472.58,316.75c-1.36-1.29-1-3.52-.35-5.3s1.31-3.82.31-5.41-2.91-1.82-4.59-1.5a46.33,46.33,0,0,0-4.84,1.71c-1.64.51-3.58.61-4.92-.45-1.51-1.21-1.7-3.52-1.08-5.36a26.32,26.32,0,0,1,2.91-5c1-1.65,1.83-3.6,1.41-5.49-.62-2.79-3.8-4.4-6.64-4.16s-5.36,1.89-7.62,3.64c-1.76,1.37-4.08,2.91-6,1.82a4.18,4.18,0,0,1-1.82-3.47c-.1-1.36.13-2.73,0-4.09a8,8,0,0,0-15.42-2.21,8.1,8.1,0,0,0,3.56,9.63c1.93,1.06,4.5,1.46,5.49,3.43s-.33,4.44-1.65,6.31-2.72,4.21-1.77,6.3,3.71,2.58,6,2.59,5,0,6.5,1.71,1.12,4.79.22,7.12-2.1,4.65-2.87,7.07a12.12,12.12,0,0,0-.26,7.5,6.47,6.47,0,0,0,5.57,4.52,14.4,14.4,0,0,0,4.68-1.18c1.53-.49,3.32-.74,4.68.14a11.33,11.33,0,0,1,2.25,2.65,7.61,7.61,0,0,0,6,2.77c2.64-.08,3.83-1.6,5.85-2.9s3.95-1.89,5.47-4a21.94,21.94,0,0,0,1.92-3.58l3.27-7.14c.8-1.74,1.54-4,.25-5.42C477.55,317.24,474.29,318.37,472.58,316.75Z" transform="translate(-63.21 -63.21)"/><polygon class="cls-55" points="407.65 258.6 406.89 258.52 402 267.96 393.8 253.48 392.65 254.11 396.94 262.08 386.43 261.2 386.09 261.89 397.64 263.38 416.69 298.62 418.7 297.51 402.73 269.25 407.65 258.6"/><path class="cls-56" d="M166.39,700c-8.24,14.41-11.5,41.54,18.81,47.7V656.29S183.84,669.45,166.39,700Z" transform="translate(-63.21 -63.21)"/><path class="cls-57" d="M204,700c8.23,14.41,11.5,41.54-18.81,47.7V656.29S186.56,669.45,204,700Z" transform="translate(-63.21 -63.21)"/><path class="cls-58" d="M205.15,653.77c-5.48,9.6-7.66,27.68,12.54,31.79V624.64S216.79,633.42,205.15,653.77Z" transform="translate(-63.21 -63.21)"/><path class="cls-59" d="M230.23,653.77c5.48,9.6,7.66,27.68-12.54,31.79V624.64S218.59,633.42,230.23,653.77Z" transform="translate(-63.21 -63.21)"/><path class="cls-60" d="M203.74,699.52c6.91,14.89,7.83,38.84-20.42,44.58-10.42-2.12-16.87-6.71-20.52-12.42,3.07,7.34,9.86,13.47,22.4,16,30.31-6.16,27-33.29,18.81-47.7Z" transform="translate(-63.21 -63.21)"/><path class="cls-61" d="M230.23,653.77l-.6-1c4.41,9.95,4.71,25.48-13.82,29.24-6.6-1.34-10.81-4.18-13.3-7.73,1.91,5.18,6.46,9.56,15.18,11.33C237.89,681.45,235.71,663.37,230.23,653.77Z" transform="translate(-63.21 -63.21)"/><path class="cls-62" d="M173.8,691.58a44.41,44.41,0,0,0-3.74,6.24,10,10,0,0,0-.64,7.09,5.72,5.72,0,0,0,5.45,4,6.22,6.22,0,0,0,4.88-3.91,18.42,18.42,0,0,0,1.13-6.44q.74-14,1.49-28.09l.18-3.35A57.73,57.73,0,0,1,173.8,691.58Z" transform="translate(-63.21 -63.21)"/><path class="cls-62" d="M211.49,645.55a24,24,0,0,0-2.06,3.43,5.51,5.51,0,0,0-.35,3.9,3.12,3.12,0,0,0,3,2.21,3.39,3.39,0,0,0,2.69-2.15,10,10,0,0,0,.62-3.54q.41-7.73.82-15.45l.1-1.85A31.8,31.8,0,0,1,211.49,645.55Z" transform="translate(-63.21 -63.21)"/><path class="cls-63" d="M1017.91,928.56c-6.47-2.58-13.64-2.55-20.58-3.18-5.1-.47-10.4-1.4-14.48-4.5s-6.46-9-4.16-13.53c4-7.89,19-13.17,22.9-21.08,2.47-5-1.14-15-5.81-18s-10.43-3.52-15.95-4c-55.08-4.51-111.16-.09-166.4-1.19-16.06-.32-31.57,1.87-46.34,8.52-4.85,2.19-9.66,4.88-13,9.05s-4.8,10.14-2.51,14.95c2.12,4.45,7.16,7.54,7.62,12.45.68,7.1-8.25,10.83-15.35,11.46-8.09.72-16.27.43-24.28,1.78s-16.09,4.61-21.11,11-6,16.35-.58,22.41c4.91,5.49,13.14,6.31,20.49,5.9s15-1.6,21.85,1.16,11.89,11.49,7.81,17.62-15,6.12-17.74,13.1c-1.84,4.6,1.26,10,5.58,12.41s9.5,2.65,14.45,2.81l103.47,3.36c23.59.77,47.82,1.44,70.06-6.44,6.86-2.43,14.71-8.37,12.3-15.24-3-8.49-18.48-7.54-20.1-16.39-.8-4.36,2.86-8.52,7.06-9.93s8.77-.8,13.17-.3a243.34,243.34,0,0,0,71-2.27c9.78-1.77,21.52-6.39,22.29-16.29C1030.12,937.27,1024.39,931.15,1017.91,928.56Z" transform="translate(-63.21 -63.21)"/></g></g></svg>